<svg width="62" height="26" viewBox="0 0 62 26" fill="none" xmlns="http://www.w3.org/2000/svg">
<path d="M61.5207 0L58.404 11.6316H51.7809L54.8976 0H61.5207ZM33.6943 11.3237L36.6368 0.342105H51.7246L50.5513 4.72105H42.122L41.517 6.97895H50.6546L49.4905 11.3237H33.6943ZM55.8373 21.2105H38.412L38.137 22.2368H55.9165L54.9081 26H30.4702L32.7619 17.4474H50.2226L50.4976 16.4211H33.0369L34.0452 12.6579H58.129L55.8373 21.2105Z" fill="#FF234C"/>
<path d="M25.8088 0H32.4673L28.0214 16.5921H21.363L25.8088 0ZM22.7067 0.342105C21.2461 5.79298 18.8544 9.78421 15.5316 12.3158C12.2149 14.8246 8.15995 16.0789 3.3668 16.0789L3.75846 11.9737C6.42656 11.9737 8.66063 11.3465 10.4607 10.0921H5.32515L6.42515 5.98684H13.8274C14.0265 5.5079 14.1995 4.99474 14.3461 4.44737H6.48347L7.58348 0.342105H22.7067ZM2.37931 22.4079L3.66265 17.6184H27.7464L25.5006 26H18.8421L19.8046 22.4079H2.37931Z" fill="#FF234C"/>
</svg>
