<svg width="92" height="92" viewBox="0 0 92 92" fill="none" xmlns="http://www.w3.org/2000/svg">
<path d="M83.4644 1.46448C85.417 -0.488142 88.582 -0.488143 90.5347 1.46448C92.4869 3.41713 92.4872 6.58229 90.5347 8.53479L53.0698 45.9996L90.5347 83.4645C92.4869 85.4171 92.4872 88.5823 90.5347 90.5348C88.5822 92.4873 85.417 92.487 83.4644 90.5348L45.9995 53.0699L8.53467 90.5348C6.58217 92.4873 3.41701 92.487 1.46436 90.5348C-0.488266 88.5822 -0.488266 85.4171 1.46436 83.4645L38.9292 45.9996L1.46436 8.53479C-0.488266 6.58217 -0.488266 3.4171 1.46436 1.46448C3.41698 -0.488144 6.58205 -0.488144 8.53467 1.46448L45.9995 38.9293L83.4644 1.46448Z" fill="black"/>
</svg>
